REM DIRINDEX 1\2,1\3,1\4
REM DIRNAME cjc151,folder01,folder02,folder03
TITLE ""
FILE "085 085_TOEFL_3900.mp3" MP3
  TRACK 01 AUDIO
    TITLE "2:cjc151_3692"
    INDEX 01 00:00:00
  TRACK 02 AUDIO
    TITLE "0:"
    INDEX 01 00:01:22
  TRACK 03 AUDIO
    TITLE "3:cjc151_3693"
    INDEX 01 00:02:71
  TRACK 04 AUDIO
    TITLE "0:"
    INDEX 01 00:06:59
  TRACK 05 AUDIO
    TITLE "2:cjc151_3694"
    INDEX 01 00:08:36
  TRACK 06 AUDIO
    TITLE "0:"
    INDEX 01 00:10:37
  TRACK 07 AUDIO
    TITLE "3:cjc151_3695"
    INDEX 01 00:12:16
  TRACK 08 AUDIO
    TITLE "0:"
    INDEX 01 00:15:72
  TRACK 09 AUDIO
    TITLE "2:cjc151_3696"
    INDEX 01 00:17:51
  TRACK 10 AUDIO
    TITLE "0:"
    INDEX 01 00:18:68
  TRACK 11 AUDIO
    TITLE "3:cjc151_3697"
    INDEX 01 00:20:39
  TRACK 12 AUDIO
    TITLE "0:"
    INDEX 01 00:24:27
  TRACK 13 AUDIO
    TITLE "2:cjc151_3698"
    INDEX 01 00:26:07
  TRACK 14 AUDIO
    TITLE "0:"
    INDEX 01 00:27:12
  TRACK 15 AUDIO
    TITLE "3:cjc151_3699"
    INDEX 01 00:28:64
  TRACK 16 AUDIO
    TITLE "0:"
    INDEX 01 00:32:09
  TRACK 17 AUDIO
    TITLE "2:cjc151_3700"
    INDEX 01 00:33:62
  TRACK 18 AUDIO
    TITLE "0:"
    INDEX 01 00:35:17
  TRACK 19 AUDIO
    TITLE "3:cjc151_3701"
    INDEX 01 00:36:70
  TRACK 20 AUDIO
    TITLE "0:"
    INDEX 01 00:40:44
  TRACK 21 AUDIO
    TITLE "2:cjc151_3702"
    INDEX 01 00:42:21
  TRACK 22 AUDIO
    TITLE "0:"
    INDEX 01 00:43:25
  TRACK 23 AUDIO
    TITLE "3:cjc151_3703"
    INDEX 01 00:45:04
  TRACK 24 AUDIO
    TITLE "0:"
    INDEX 01 00:49:18
  TRACK 25 AUDIO
    TITLE "2:cjc151_3704"
    INDEX 01 00:50:72
  TRACK 26 AUDIO
    TITLE "0:"
    INDEX 01 00:52:08
  TRACK 27 AUDIO
    TITLE "3:cjc151_3705"
    INDEX 01 00:53:62
  TRACK 28 AUDIO
    TITLE "0:"
    INDEX 01 00:57:25
  TRACK 29 AUDIO
    TITLE "2:cjc151_3706"
    INDEX 01 00:59:02
  TRACK 30 AUDIO
    TITLE "0:"
    INDEX 01 01:00:27
  TRACK 31 AUDIO
    TITLE "3:cjc151_3707"
    INDEX 01 01:02:06
  TRACK 32 AUDIO
    TITLE "0:"
    INDEX 01 01:04:74
  TRACK 33 AUDIO
    TITLE "2:cjc151_3708"
    INDEX 01 01:06:51
  TRACK 34 AUDIO
    TITLE "0:"
    INDEX 01 01:07:74
  TRACK 35 AUDIO
    TITLE "3:cjc151_3709"
    INDEX 01 01:09:50
  TRACK 36 AUDIO
    TITLE "0:"
    INDEX 01 01:13:44
  TRACK 37 AUDIO
    TITLE "2:cjc151_3710"
    INDEX 01 01:15:21
  TRACK 38 AUDIO
    TITLE "0:"
    INDEX 01 01:16:44
  TRACK 39 AUDIO
    TITLE "3:cjc151_3711"
    INDEX 01 01:18:21
  TRACK 40 AUDIO
    TITLE "0:"
    INDEX 01 01:22:50
  TRACK 41 AUDIO
    TITLE "2:cjc151_3712"
    INDEX 01 01:24:32
  TRACK 42 AUDIO
    TITLE "0:"
    INDEX 01 01:25:45
  TRACK 43 AUDIO
    TITLE "3:cjc151_3713"
    INDEX 01 01:27:22
  TRACK 44 AUDIO
    TITLE "0:"
    INDEX 01 01:31:08
  TRACK 45 AUDIO
    TITLE "2:cjc151_3714"
    INDEX 01 01:32:62
  TRACK 46 AUDIO
    TITLE "0:"
    INDEX 01 01:33:58
  TRACK 47 AUDIO
    TITLE "3:cjc151_3715"
    INDEX 01 01:35:37
  TRACK 48 AUDIO
    TITLE "0:"
    INDEX 01 01:38:30
  TRACK 49 AUDIO
    TITLE "2:cjc151_3716"
    INDEX 01 01:40:09
  TRACK 50 AUDIO
    TITLE "0:"
    INDEX 01 01:41:09
  TRACK 51 AUDIO
    TITLE "3:cjc151_3717"
    INDEX 01 01:42:61
  TRACK 52 AUDIO
    TITLE "0:"
    INDEX 01 01:46:33
  TRACK 53 AUDIO
    TITLE "2:cjc151_3718"
    INDEX 01 01:48:11
  TRACK 54 AUDIO
    TITLE "0:"
    INDEX 01 01:49:26
  TRACK 55 AUDIO
    TITLE "3:cjc151_3719"
    INDEX 01 01:51:05
  TRACK 56 AUDIO
    TITLE "0:"
    INDEX 01 01:54:64
  TRACK 57 AUDIO
    TITLE "2:cjc151_3720"
    INDEX 01 01:56:41
  TRACK 58 AUDIO
    TITLE "0:"
    INDEX 01 01:57:62
  TRACK 59 AUDIO
    TITLE "3:cjc151_3721"
    INDEX 01 01:59:42
  TRACK 60 AUDIO
    TITLE "0:"
    INDEX 01 02:04:12
  TRACK 61 AUDIO
    TITLE "2:cjc151_3722"
    INDEX 01 02:05:64
  TRACK 62 AUDIO
    TITLE "0:"
    INDEX 01 02:07:04
  TRACK 63 AUDIO
    TITLE "3:cjc151_3723"
    INDEX 01 02:08:58
  TRACK 64 AUDIO
    TITLE "0:"
    INDEX 01 02:12:36
  TRACK 65 AUDIO
    TITLE "2:cjc151_3724"
    INDEX 01 02:14:16
  TRACK 66 AUDIO
    TITLE "0:"
    INDEX 01 02:15:17
  TRACK 67 AUDIO
    TITLE "3:cjc151_3725"
    INDEX 01 02:17:02
  TRACK 68 AUDIO
    TITLE "0:"
    INDEX 01 02:20:60
  TRACK 69 AUDIO
    TITLE "2:cjc151_3726"
    INDEX 01 02:22:37
  TRACK 70 AUDIO
    TITLE "0:"
    INDEX 01 02:23:36
  TRACK 71 AUDIO
    TITLE "3:cjc151_3727"
    INDEX 01 02:25:18
  TRACK 72 AUDIO
    TITLE "0:"
    INDEX 01 02:28:16
  TRACK 73 AUDIO
    TITLE "2:cjc151_3728"
    INDEX 01 02:29:68
  TRACK 74 AUDIO
    TITLE "0:"
    INDEX 01 02:30:64
  TRACK 75 AUDIO
    TITLE "3:cjc151_3729"
    INDEX 01 02:32:41
  TRACK 76 AUDIO
    TITLE "0:"
    INDEX 01 02:35:61
  TRACK 77 AUDIO
    TITLE "2:cjc151_3730"
    INDEX 01 02:37:38
  TRACK 78 AUDIO
    TITLE "0:"
    INDEX 01 02:38:46
  TRACK 79 AUDIO
    TITLE "3:cjc151_3731"
    INDEX 01 02:40:19
  TRACK 80 AUDIO
    TITLE "0:"
    INDEX 01 02:43:37
  TRACK 81 AUDIO
    TITLE "2:cjc151_3732"
    INDEX 01 02:45:16
  TRACK 82 AUDIO
    TITLE "0:"
    INDEX 01 02:46:08
  TRACK 83 AUDIO
    TITLE "3:cjc151_3733"
    INDEX 01 02:47:62
  TRACK 84 AUDIO
    TITLE "0:"
    INDEX 01 02:51:48
  TRACK 85 AUDIO
    TITLE "2:cjc151_3734"
    INDEX 01 02:53:26
  TRACK 86 AUDIO
    TITLE "0:"
    INDEX 01 02:54:33
  TRACK 87 AUDIO
    TITLE "3:cjc151_3735"
    INDEX 01 02:56:12
  TRACK 88 AUDIO
    TITLE "0:"
    INDEX 01 02:59:40
